<?xml version="1.0" encoding="utf-8"?>
<!-- Generator: Adobe Illustrator 23.0.2, SVG Export Plug-In . SVG Version: 6.00 Build 0)  -->
<svg version="1.1" id="Layer_1" xmlns="http://www.w3.org/2000/svg" xmlns:xlink="http://www.w3.org/1999/xlink" x="0px" y="0px"
	 viewBox="0 0 1988.3 416.9" style="enable-background:new 0 0 1988.3 416.9;" xml:space="preserve">
<style type="text/css">
	.st0{fill:none;stroke:#010101;stroke-width:16;stroke-miterlimit:10;}
	.st1{fill:#009447;}
	.st2{fill:#010101;}
	.st3{fill:#009444;}
</style>
<g>
	<path d="M611.5,223.3c0,24.4-4.1,45.7-12.3,63.8c-8.2,18.2-19.8,32-34.9,41.6s-32.6,14.4-52.6,14.4c-19.6,0-37-4.8-52.1-14.4
		c-15.2-9.6-26.9-23.4-35.3-41.2c-8.4-17.8-12.7-38.5-12.9-62v-17.9c0-23.9,4.2-45.1,12.5-63.4c8.3-18.3,20.1-32.4,35.3-42.1
		c15.2-9.7,32.6-14.6,52.2-14.6c19.9,0,37.5,4.8,52.7,14.4c15.2,9.6,26.9,23.6,35.1,41.9s12.3,39.6,12.3,63.8V223.3z M578.8,207.2
		c0-29.5-5.9-52.2-17.8-67.9c-11.9-15.8-28.4-23.7-49.7-23.7c-20.7,0-37.1,7.9-49,23.7c-11.9,15.8-18,37.7-18.4,65.7v18.3
		c0,28.6,6,51.1,18,67.4c12,16.4,28.6,24.5,49.6,24.5c21.2,0,37.6-7.7,49.2-23.2c11.6-15.4,17.6-37.6,17.9-66.4V207.2z"/>
	<path d="M851.9,339.6h-33L693.7,147.9v191.7h-33V90.8h33l125.6,192.6V90.8h32.6V339.6z"/>
	<path d="M1050.8,224.6H943v88.2h125.3v26.8H910.2V90.8h156.4v26.8H943v80.2h107.8V224.6z"/>
	<path d="M1246.5,274.5h-104.2l-23.4,65.1H1085l95-248.8h28.7l95.2,248.8h-33.7L1246.5,274.5z M1152.2,247.7h84.6l-42.4-116.4
		L1152.2,247.7z"/>
	<path d="M1509.7,90.8V260c-0.1,23.5-7.5,42.7-22.1,57.6c-14.6,14.9-34.5,23.3-59.6,25.1l-8.7,0.3c-27.2,0-48.9-7.3-65.1-22
		c-16.2-14.7-24.4-34.9-24.6-60.7V90.8h32.5v168.5c0,18,5,32,14.9,42c9.9,10,24,15,42.4,15c18.6,0,32.8-5,42.6-14.9
		c9.9-9.9,14.8-23.9,14.8-41.9V90.8H1509.7z"/>
	<path d="M1733.4,117.6h-80v222h-32.6v-222H1541V90.8h192.4V117.6z"/>
	<path d="M1961.6,339.6h-33v-115h-125.4v115h-32.8V90.8h32.8v107h125.4v-107h33V339.6z"/>
</g>
<g>
	<polygon class="st0" points="325.4,129.4 180.5,44.9 34.8,128.1 34.1,295.9 179,380.4 324.7,297.2 	"/>
	<circle class="st1" cx="324.6" cy="130.7" r="31.2"/>
	<circle class="st2" cx="34.8" cy="128.9" r="31.2"/>
	<circle class="st2" cx="178.8" cy="379.3" r="31.2"/>
	<circle class="st3" cx="180.4" cy="45.4" r="31.2"/>
	<circle class="st3" cx="34.8" cy="295.3" r="31.2"/>
	<circle class="st3" cx="323.7" cy="297.5" r="31.2"/>
</g>
</svg>
