<?xml version="1.0" encoding="utf-8"?>
<!-- Generator: Adobe Illustrator 23.0.2, SVG Export Plug-In . SVG Version: 6.00 Build 0)  -->
<svg version="1.1" id="Layer_1" xmlns="http://www.w3.org/2000/svg" xmlns:xlink="http://www.w3.org/1999/xlink" x="0px" y="0px"
	 viewBox="0 0 1988.3 416.9" style="enable-background:new 0 0 1988.3 416.9;" xml:space="preserve">
<style type="text/css">
	.st0{fill:#FFFFFF;}
	.st1{fill:none;stroke:#FFFFFF;stroke-width:16;stroke-miterlimit:10;}
	.st2{fill:#009444;stroke:#FFFFFF;stroke-miterlimit:10;}
	.st3{fill:#FFFFFF;stroke:#FFFFFF;stroke-miterlimit:10;}
</style>
<g>
	<path class="st0" d="M619.1,223.3c0,24.4-4.1,45.7-12.3,63.8c-8.2,18.2-19.8,32-34.9,41.6s-32.6,14.4-52.6,14.4
		c-19.6,0-37-4.8-52.1-14.4c-15.2-9.6-26.9-23.4-35.3-41.2c-8.4-17.8-12.7-38.5-12.9-62v-17.9c0-23.9,4.2-45.1,12.5-63.4
		c8.3-18.3,20.1-32.4,35.3-42.1c15.2-9.7,32.6-14.6,52.2-14.6c19.9,0,37.5,4.8,52.7,14.4c15.2,9.6,26.9,23.6,35.1,41.9
		s12.3,39.6,12.3,63.8V223.3z M586.5,207.2c0-29.5-5.9-52.2-17.8-67.9c-11.9-15.8-28.4-23.7-49.7-23.7c-20.7,0-37.1,7.9-49,23.7
		c-11.9,15.8-18,37.7-18.4,65.7v18.3c0,28.6,6,51.1,18,67.4c12,16.4,28.6,24.5,49.6,24.5c21.2,0,37.6-7.7,49.2-23.2
		c11.6-15.4,17.6-37.6,17.9-66.4V207.2z"/>
	<path class="st0" d="M859.6,339.6h-33L701.3,147.9v191.7h-33V90.8h33l125.6,192.6V90.8h32.6V339.6z"/>
	<path class="st0" d="M1058.5,224.6H950.7v88.2h125.3v26.8H917.8V90.8h156.4v26.8H950.7v80.2h107.8V224.6z"/>
	<path class="st0" d="M1254.2,274.5h-104.2l-23.4,65.1h-33.8l95-248.8h28.7l95.2,248.8h-33.7L1254.2,274.5z M1159.8,247.7h84.6
		L1202,131.3L1159.8,247.7z"/>
	<path class="st0" d="M1517.3,90.8V260c-0.1,23.5-7.5,42.7-22.1,57.6c-14.6,14.9-34.5,23.3-59.6,25.1l-8.7,0.3
		c-27.2,0-48.9-7.3-65.1-22c-16.2-14.7-24.4-34.9-24.6-60.7V90.8h32.5v168.5c0,18,5,32,14.9,42c9.9,10,24,15,42.4,15
		c18.6,0,32.8-5,42.6-14.9c9.9-9.9,14.8-23.9,14.8-41.9V90.8H1517.3z"/>
	<path class="st0" d="M1741.1,117.6h-80v222h-32.6v-222h-79.8V90.8h192.4V117.6z"/>
	<path class="st0" d="M1969.2,339.6h-33v-115h-125.4v115H1778V90.8h32.8v107h125.4v-107h33V339.6z"/>
</g>
<g>
	<polygon class="st1" points="333.1,129.4 188.2,44.9 42.5,128.1 41.7,295.9 186.7,380.4 332.3,297.2 	"/>
	<circle class="st2" cx="188.2" cy="46.8" r="36.8"/>
	<circle class="st3" cx="332" cy="130.5" r="36.8"/>
	<circle class="st2" cx="330.5" cy="295.6" r="36.8"/>
	<circle class="st2" cx="43.3" cy="295.6" r="36.8"/>
	<circle class="st3" cx="42.5" cy="129.5" r="36.8"/>
	<circle class="st3" cx="187.3" cy="379.1" r="36.8"/>
</g>
</svg>
